<svg width="29" height="21" viewBox="0 0 29 21" fill="none" xmlns="http://www.w3.org/2000/svg">
<path d="M24.8807 20.6644H4.11932C3.0272 20.6632 1.98018 20.2287 1.20794 19.4565C0.435693 18.6843 0.00128258 17.6372 0 16.5451V4.11932C0.00128258 3.0272 0.435693 1.98018 1.20794 1.20794C1.98018 0.435693 3.0272 0.00128258 4.11932 0H24.8807C25.9728 0.00128258 27.0198 0.435693 27.7921 1.20794C28.5643 1.98018 28.9987 3.0272 29 4.11932V16.5451C28.9987 17.6372 28.5643 18.6843 27.7921 19.4565C27.0198 20.2287 25.9728 20.6632 24.8807 20.6644ZM4.11932 1.45388C3.4124 1.45388 2.73443 1.7347 2.23457 2.23457C1.7347 2.73443 1.45388 3.4124 1.45388 4.11932V16.5451C1.45388 17.252 1.7347 17.93 2.23457 18.4299C2.73443 18.9297 3.4124 19.2106 4.11932 19.2106H24.8807C25.5876 19.2106 26.2656 18.9297 26.7654 18.4299C27.2653 17.93 27.5461 17.252 27.5461 16.5451V4.11932C27.5461 3.4124 27.2653 2.73443 26.7654 2.23457C26.2656 1.7347 25.5876 1.45388 24.8807 1.45388H4.11932Z" fill="black"/>
<path d="M14.5001 13.2787C13.6034 13.2801 12.7306 12.9892 12.014 12.45L0.698008 3.89154C0.618055 3.83542 0.550231 3.76377 0.498587 3.68086C0.446942 3.59795 0.412537 3.50549 0.397425 3.40898C0.382312 3.31248 0.386804 3.21392 0.410631 3.1192C0.434458 3.02447 0.477131 2.93551 0.536103 2.85764C0.595074 2.77978 0.669134 2.71459 0.753859 2.66598C0.838584 2.61737 0.932237 2.58634 1.02922 2.57473C1.12621 2.56312 1.22454 2.57118 1.31834 2.59842C1.41215 2.62566 1.4995 2.67153 1.57518 2.73328L12.8912 11.3015C13.3559 11.6484 13.9203 11.8358 14.5001 11.8358C15.08 11.8358 15.6444 11.6484 16.1091 11.3015L27.4251 2.73328C27.5008 2.67153 27.5881 2.62566 27.682 2.59842C27.7758 2.57118 27.8741 2.56312 27.9711 2.57473C28.0681 2.58634 28.1617 2.61737 28.2464 2.66598C28.3312 2.71459 28.4052 2.77978 28.4642 2.85764C28.5232 2.93551 28.5658 3.02447 28.5897 3.1192C28.6135 3.21392 28.618 3.31248 28.6029 3.40898C28.5878 3.50549 28.5534 3.59795 28.5017 3.68086C28.4501 3.76377 28.3822 3.83542 28.3023 3.89154L16.9863 12.45C16.2697 12.9892 15.3969 13.2801 14.5001 13.2787Z" fill="black"/>
<path d="M1.01292 18.6387C0.865483 18.6389 0.721466 18.5943 0.599978 18.5108C0.47849 18.4272 0.385274 18.3087 0.3327 18.171C0.280126 18.0332 0.270679 17.8828 0.305612 17.7395C0.340545 17.5963 0.418207 17.4671 0.528293 17.369L9.44541 9.41628C9.58936 9.28775 9.77848 9.22167 9.97115 9.23258C10.1638 9.24348 10.3443 9.33048 10.4728 9.47444C10.6013 9.61839 10.6674 9.80751 10.6565 10.0002C10.6456 10.1929 10.5586 10.3733 10.4147 10.5018L1.49754 18.4546C1.36512 18.575 1.19194 18.6408 1.01292 18.6387ZM27.9872 18.6387C27.8082 18.6408 27.635 18.575 27.5026 18.4546L18.5854 10.5018C18.5142 10.4382 18.4561 10.3611 18.4146 10.2751C18.3731 10.189 18.349 10.0956 18.3436 10.0002C18.3382 9.90478 18.3516 9.80925 18.3832 9.71904C18.4147 9.62883 18.4636 9.54572 18.5273 9.47444C18.5909 9.40316 18.668 9.34511 18.7541 9.30362C18.8401 9.26212 18.9335 9.23798 19.0289 9.23258C19.1244 9.22718 19.2199 9.24062 19.3101 9.27214C19.4003 9.30366 19.4834 9.35264 19.5547 9.41628L28.467 17.369C28.577 17.4671 28.6547 17.5963 28.6896 17.7395C28.7246 17.8828 28.7151 18.0332 28.6626 18.171C28.61 18.3087 28.5168 18.4272 28.3953 18.5108C28.2738 18.5943 28.1298 18.6389 27.9823 18.6387H27.9872Z" fill="black"/>
</svg>
