<svg width="31" height="39" viewBox="0 0 31 39" fill="none" xmlns="http://www.w3.org/2000/svg">
<path d="M15.3212 22.2855C13.9438 22.2855 12.5973 21.8771 11.4521 21.1118C10.3068 20.3466 9.41417 19.2589 8.88706 17.9863C8.35995 16.7138 8.22204 15.3135 8.49075 13.9626C8.75947 12.6116 9.42276 11.3707 10.3967 10.3967C11.3707 9.42276 12.6116 8.75947 13.9626 8.49075C15.3135 8.22204 16.7138 8.35995 17.9863 8.88706C19.2589 9.41417 20.3466 10.3068 21.1118 11.4521C21.8771 12.5973 22.2855 13.9438 22.2855 15.3212C22.2833 17.1676 21.5489 18.9377 20.2433 20.2433C18.9377 21.5489 17.1676 22.2833 15.3212 22.2855V22.2855ZM15.3212 11.1427C14.4948 11.1427 13.6869 11.3877 12.9997 11.8469C12.3126 12.306 11.777 12.9586 11.4607 13.7222C11.1445 14.4857 11.0617 15.3259 11.2229 16.1364C11.3842 16.947 11.7821 17.6915 12.3665 18.2759C12.9509 18.8603 13.6955 19.2583 14.506 19.4195C15.3166 19.5807 16.1568 19.498 16.9203 19.1817C17.6838 18.8655 18.3364 18.3299 18.7956 17.6427C19.2547 16.9556 19.4998 16.1477 19.4998 15.3212C19.4987 14.2133 19.0581 13.1511 18.2747 12.3677C17.4913 11.5844 16.4291 11.1438 15.3212 11.1427V11.1427Z" fill="black"/>
<path d="M15.3214 39L3.5713 25.1425C3.40803 24.9344 3.24646 24.725 3.08659 24.5143C1.07945 21.8703 -0.0048488 18.6409 1.63004e-05 15.3214C1.63004e-05 11.2579 1.61423 7.36087 4.48756 4.48754C7.36088 1.61422 11.2579 0 15.3214 0C19.3849 0 23.282 1.61422 26.1553 4.48754C29.0287 7.36087 30.6429 11.2579 30.6429 15.3214C30.6477 18.6394 29.5639 21.8674 27.5577 24.5101L27.5563 24.5143C27.5563 24.5143 27.1384 25.0631 27.0758 25.1369L15.3214 39ZM5.30959 22.8359C5.31237 22.8359 5.63552 23.2649 5.70934 23.3568L15.3214 34.6933L24.9461 23.3415C25.0074 23.2649 25.3333 22.8331 25.3347 22.8317C26.9743 20.6716 27.8604 18.0334 27.8572 15.3214C27.8572 11.9968 26.5364 8.80824 24.1855 6.45734C21.8346 4.10644 18.6461 2.78571 15.3214 2.78571C11.9968 2.78571 8.80826 4.10644 6.45736 6.45734C4.10645 8.80824 2.78573 11.9968 2.78573 15.3214C2.78281 18.035 3.66988 20.6748 5.31098 22.8359H5.30959Z" fill="black"/>
</svg>
