<svg width="156" height="182" viewBox="0 0 156 182" fill="none" xmlns="http://www.w3.org/2000/svg">
<path opacity="0.8" d="M69.688 11.736C69.688 10.0933 70.0187 8.79733 70.68 7.848C71.352 6.888 72.232 6.408 73.32 6.408C74.4507 6.408 75.3467 6.888 76.008 7.848C76.68 8.79733 77.016 10.0933 77.016 11.736C77.016 13.368 76.696 14.6747 76.056 15.656C75.416 16.6373 74.504 17.128 73.32 17.128C72.2213 17.128 71.3413 16.6373 70.68 15.656C70.0187 14.6747 69.688 13.368 69.688 11.736ZM71.672 8.696C71.2133 9.41067 70.984 10.424 70.984 11.736C70.984 13.048 71.208 14.0773 71.656 14.824C72.104 15.56 72.6587 15.928 73.32 15.928C74.056 15.928 74.6373 15.5653 75.064 14.84C75.5013 14.1147 75.72 13.08 75.72 11.736C75.72 10.4027 75.4907 9.384 75.032 8.68C74.584 7.96533 74.0133 7.608 73.32 7.608C72.68 7.608 72.1307 7.97067 71.672 8.696ZM81.9431 16.008C82.6578 16.008 83.2071 15.832 83.5911 15.48C83.9751 15.128 84.1671 14.6907 84.1671 14.168C84.1671 13.656 83.9805 13.224 83.6071 12.872C83.2338 12.52 82.6791 12.3493 81.9431 12.36C81.2285 12.3707 80.6898 12.5627 80.3271 12.936C79.9751 13.2987 79.7991 13.752 79.7991 14.296C79.7991 14.7867 79.9858 15.1973 80.3591 15.528C80.7325 15.848 81.2605 16.008 81.9431 16.008ZM81.9271 7.544C81.3298 7.544 80.8551 7.72 80.5031 8.072C80.1511 8.424 79.9751 8.85067 79.9751 9.352C79.9751 9.96 80.1618 10.4187 80.5351 10.728C80.9191 11.0373 81.4045 11.192 81.9911 11.192C82.5565 11.192 83.0205 11.032 83.3831 10.712C83.7458 10.3813 83.9271 9.92267 83.9271 9.336C83.9271 8.824 83.7565 8.39733 83.4151 8.056C83.0738 7.71467 82.5778 7.544 81.9271 7.544ZM83.5271 11.752C84.8178 12.1467 85.4631 12.9893 85.4631 14.28C85.4631 15.144 85.1271 15.8373 84.4551 16.36C83.7831 16.872 82.9405 17.128 81.9271 17.128C80.9565 17.128 80.1458 16.8773 79.4951 16.376C78.8445 15.8747 78.5191 15.2027 78.5191 14.36C78.5191 13.7307 78.6845 13.1973 79.0151 12.76C79.3565 12.312 79.8205 11.9867 80.4071 11.784C79.2658 11.3467 78.6951 10.5413 78.6951 9.368C78.6951 8.44 79.0151 7.72 79.6551 7.208C80.2951 6.68533 81.0525 6.424 81.9271 6.424C82.8338 6.424 83.6071 6.68 84.2471 7.192C84.8871 7.69333 85.2071 8.424 85.2071 9.384C85.2071 9.928 85.0578 10.408 84.7591 10.824C84.4605 11.2293 84.0498 11.5387 83.5271 11.752ZM87.2253 10.92C87.2253 10.664 87.3106 10.4453 87.4813 10.264C87.6626 10.0827 87.8866 9.992 88.1533 9.992C88.4199 9.992 88.6439 10.0827 88.8253 10.264C89.0066 10.4453 89.0973 10.664 89.0973 10.92C89.0973 11.1867 89.0066 11.4107 88.8253 11.592C88.6439 11.7627 88.4199 11.848 88.1533 11.848C87.8866 11.848 87.6626 11.7627 87.4813 11.592C87.3106 11.4107 87.2253 11.1867 87.2253 10.92ZM87.4813 16.76C87.3106 16.5787 87.2253 16.3547 87.2253 16.088C87.2253 15.8213 87.3106 15.5973 87.4813 15.416C87.6626 15.2347 87.8866 15.144 88.1533 15.144C88.4199 15.144 88.6439 15.2347 88.8253 15.416C89.0066 15.5973 89.0973 15.8213 89.0973 16.088C89.0973 16.3547 89.0066 16.5787 88.8253 16.76C88.6439 16.9307 88.4199 17.016 88.1533 17.016C87.8866 17.016 87.6626 16.9307 87.4813 16.76ZM90.7349 11.736C90.7349 10.0933 91.0655 8.79733 91.7269 7.848C92.3989 6.888 93.2789 6.408 94.3669 6.408C95.4975 6.408 96.3935 6.888 97.0549 7.848C97.7269 8.79733 98.0629 10.0933 98.0629 11.736C98.0629 13.368 97.7429 14.6747 97.1029 15.656C96.4629 16.6373 95.5509 17.128 94.3669 17.128C93.2682 17.128 92.3882 16.6373 91.7269 15.656C91.0655 14.6747 90.7349 13.368 90.7349 11.736ZM92.7189 8.696C92.2602 9.41067 92.0309 10.424 92.0309 11.736C92.0309 13.048 92.2549 14.0773 92.7029 14.824C93.1509 15.56 93.7055 15.928 94.3669 15.928C95.1029 15.928 95.6842 15.5653 96.1109 14.84C96.5482 14.1147 96.7669 13.08 96.7669 11.736C96.7669 10.4027 96.5375 9.384 96.0789 8.68C95.6309 7.96533 95.0602 7.608 94.3669 7.608C93.7269 7.608 93.1775 7.97067 92.7189 8.696ZM99.438 11.736C99.438 10.0933 99.7687 8.79733 100.43 7.848C101.102 6.888 101.982 6.408 103.07 6.408C104.201 6.408 105.097 6.888 105.758 7.848C106.43 8.79733 106.766 10.0933 106.766 11.736C106.766 13.368 106.446 14.6747 105.806 15.656C105.166 16.6373 104.254 17.128 103.07 17.128C101.971 17.128 101.091 16.6373 100.43 15.656C99.7687 14.6747 99.438 13.368 99.438 11.736ZM101.422 8.696C100.963 9.41067 100.734 10.424 100.734 11.736C100.734 13.048 100.958 14.0773 101.406 14.824C101.854 15.56 102.409 15.928 103.07 15.928C103.806 15.928 104.387 15.5653 104.814 14.84C105.251 14.1147 105.47 13.08 105.47 11.736C105.47 10.4027 105.241 9.384 104.782 8.68C104.334 7.96533 103.763 7.608 103.07 7.608C102.43 7.608 101.881 7.97067 101.422 8.696ZM112.271 13.256V12.152H116.015V13.256H112.271ZM121.116 9.4V8.04L123.596 6.536H124.78V17H123.532V7.912L121.116 9.4ZM130.24 16.008C130.955 16.008 131.504 15.832 131.888 15.48C132.272 15.128 132.464 14.6907 132.464 14.168C132.464 13.656 132.277 13.224 131.904 12.872C131.531 12.52 130.976 12.3493 130.24 12.36C129.525 12.3707 128.987 12.5627 128.624 12.936C128.272 13.2987 128.096 13.752 128.096 14.296C128.096 14.7867 128.283 15.1973 128.656 15.528C129.029 15.848 129.557 16.008 130.24 16.008ZM130.224 7.544C129.627 7.544 129.152 7.72 128.8 8.072C128.448 8.424 128.272 8.85067 128.272 9.352C128.272 9.96 128.459 10.4187 128.832 10.728C129.216 11.0373 129.701 11.192 130.288 11.192C130.853 11.192 131.317 11.032 131.68 10.712C132.043 10.3813 132.224 9.92267 132.224 9.336C132.224 8.824 132.053 8.39733 131.712 8.056C131.371 7.71467 130.875 7.544 130.224 7.544ZM131.824 11.752C133.115 12.1467 133.76 12.9893 133.76 14.28C133.76 15.144 133.424 15.8373 132.752 16.36C132.08 16.872 131.237 17.128 130.224 17.128C129.253 17.128 128.443 16.8773 127.792 16.376C127.141 15.8747 126.816 15.2027 126.816 14.36C126.816 13.7307 126.981 13.1973 127.312 12.76C127.653 12.312 128.117 11.9867 128.704 11.784C127.563 11.3467 126.992 10.5413 126.992 9.368C126.992 8.44 127.312 7.72 127.952 7.208C128.592 6.68533 129.349 6.424 130.224 6.424C131.131 6.424 131.904 6.68 132.544 7.192C133.184 7.69333 133.504 8.424 133.504 9.384C133.504 9.928 133.355 10.408 133.056 10.824C132.757 11.2293 132.347 11.5387 131.824 11.752ZM135.522 10.92C135.522 10.664 135.607 10.4453 135.778 10.264C135.959 10.0827 136.183 9.992 136.45 9.992C136.717 9.992 136.941 10.0827 137.122 10.264C137.303 10.4453 137.394 10.664 137.394 10.92C137.394 11.1867 137.303 11.4107 137.122 11.592C136.941 11.7627 136.717 11.848 136.45 11.848C136.183 11.848 135.959 11.7627 135.778 11.592C135.607 11.4107 135.522 11.1867 135.522 10.92ZM135.778 16.76C135.607 16.5787 135.522 16.3547 135.522 16.088C135.522 15.8213 135.607 15.5973 135.778 15.416C135.959 15.2347 136.183 15.144 136.45 15.144C136.717 15.144 136.941 15.2347 137.122 15.416C137.303 15.5973 137.394 15.8213 137.394 16.088C137.394 16.3547 137.303 16.5787 137.122 16.76C136.941 16.9307 136.717 17.016 136.45 17.016C136.183 17.016 135.959 16.9307 135.778 16.76ZM139.032 11.736C139.032 10.0933 139.362 8.79733 140.024 7.848C140.696 6.888 141.576 6.408 142.664 6.408C143.794 6.408 144.69 6.888 145.352 7.848C146.024 8.79733 146.36 10.0933 146.36 11.736C146.36 13.368 146.04 14.6747 145.4 15.656C144.76 16.6373 143.848 17.128 142.664 17.128C141.565 17.128 140.685 16.6373 140.024 15.656C139.362 14.6747 139.032 13.368 139.032 11.736ZM141.016 8.696C140.557 9.41067 140.328 10.424 140.328 11.736C140.328 13.048 140.552 14.0773 141 14.824C141.448 15.56 142.002 15.928 142.664 15.928C143.4 15.928 143.981 15.5653 144.408 14.84C144.845 14.1147 145.064 13.08 145.064 11.736C145.064 10.4027 144.834 9.384 144.376 8.68C143.928 7.96533 143.357 7.608 142.664 7.608C142.024 7.608 141.474 7.97067 141.016 8.696ZM147.735 11.736C147.735 10.0933 148.066 8.79733 148.727 7.848C149.399 6.888 150.279 6.408 151.367 6.408C152.498 6.408 153.394 6.888 154.055 7.848C154.727 8.79733 155.063 10.0933 155.063 11.736C155.063 13.368 154.743 14.6747 154.103 15.656C153.463 16.6373 152.551 17.128 151.367 17.128C150.268 17.128 149.388 16.6373 148.727 15.656C148.066 14.6747 147.735 13.368 147.735 11.736ZM149.719 8.696C149.26 9.41067 149.031 10.424 149.031 11.736C149.031 13.048 149.255 14.0773 149.703 14.824C150.151 15.56 150.706 15.928 151.367 15.928C152.103 15.928 152.684 15.5653 153.111 14.84C153.548 14.1147 153.767 13.08 153.767 11.736C153.767 10.4027 153.538 9.384 153.079 8.68C152.631 7.96533 152.06 7.608 151.367 7.608C150.727 7.608 150.178 7.97067 149.719 8.696Z" fill="black"/>
<path opacity="0.8" d="M22.136 11.704H23.272C24.008 11.704 24.5573 11.528 24.92 11.176C25.2827 10.824 25.464 10.3493 25.464 9.752C25.464 9.16533 25.2827 8.70667 24.92 8.376C24.5573 8.03467 24.024 7.864 23.32 7.864H22.136V11.704ZM20.12 6.216H23.496C24.712 6.216 25.6827 6.54667 26.408 7.208C27.144 7.86933 27.512 8.71733 27.512 9.752C27.512 10.8507 27.1333 11.7253 26.376 12.376C25.6293 13.016 24.6853 13.336 23.544 13.336H22.136V17H20.12V6.216ZM32.4026 17.128C31.176 17.128 30.216 16.744 29.5226 15.976C28.84 15.208 28.4986 14.2267 28.4986 13.032C28.4986 11.7947 28.856 10.776 29.5706 9.976C30.2853 9.16533 31.2293 8.76 32.4026 8.76C33.6506 8.76 34.616 9.15467 35.2986 9.944C35.9813 10.7227 36.3226 11.7147 36.3226 12.92C36.3226 14.1467 35.976 15.1547 35.2826 15.944C34.6 16.7333 33.64 17.128 32.4026 17.128ZM32.4026 10.328C31.7946 10.328 31.3253 10.5787 30.9946 11.08C30.6746 11.5813 30.5146 12.2107 30.5146 12.968C30.5146 13.7147 30.68 14.3387 31.0106 14.84C31.3413 15.3413 31.8106 15.592 32.4186 15.592C33.048 15.592 33.5226 15.3467 33.8426 14.856C34.1626 14.3653 34.3226 13.7413 34.3226 12.984C34.3226 12.2053 34.168 11.5707 33.8586 11.08C33.5493 10.5787 33.064 10.328 32.4026 10.328ZM39.8975 8.888V10.28C40.3562 9.288 41.1882 8.792 42.3935 8.792C43.2042 8.792 43.8442 9.03733 44.3135 9.528C44.7828 10.0187 45.0175 10.712 45.0175 11.608V17H43.0975V12.008C43.0975 11.4747 42.9695 11.0747 42.7135 10.808C42.4575 10.5307 42.1108 10.392 41.6735 10.392C41.1722 10.392 40.7508 10.5893 40.4095 10.984C40.0682 11.368 39.8975 11.9227 39.8975 12.648V17H37.9775V8.888H39.8975Z" fill="black"/>
<path opacity="0.8" d="M26.472 38.872V32.216H28.488V38.856C28.488 40.2533 28.1093 41.32 27.352 42.056C26.6053 42.7813 25.576 43.144 24.264 43.144C22.984 43.144 21.96 42.7867 21.192 42.072C20.4347 41.3467 20.056 40.312 20.056 38.968V32.216H22.072V38.952C22.072 39.7733 22.2747 40.3707 22.68 40.744C23.0853 41.1067 23.6133 41.288 24.264 41.288C25.736 41.288 26.472 40.4827 26.472 38.872ZM32.9229 36.328V40.456C32.9229 40.7973 33.0135 41.0587 33.1949 41.24C33.3762 41.4107 33.6269 41.496 33.9469 41.496C34.3522 41.496 34.7255 41.384 35.0669 41.16V42.808C34.6935 42.9893 34.2135 43.08 33.6269 43.08C31.8775 43.08 31.0029 42.1947 31.0029 40.424V36.328H29.7869V34.888H31.0029V32.936H32.9229V34.888H34.9389V36.328H32.9229ZM40.1214 43.128C38.8947 43.128 37.9347 42.744 37.2414 41.976C36.5587 41.208 36.2174 40.2267 36.2174 39.032C36.2174 37.7947 36.5747 36.776 37.2894 35.976C38.004 35.1653 38.948 34.76 40.1214 34.76C41.3694 34.76 42.3347 35.1547 43.0174 35.944C43.7 36.7227 44.0414 37.7147 44.0414 38.92C44.0414 40.1467 43.6947 41.1547 43.0014 41.944C42.3187 42.7333 41.3587 43.128 40.1214 43.128ZM40.1214 36.328C39.5134 36.328 39.044 36.5787 38.7134 37.08C38.3934 37.5813 38.2334 38.2107 38.2334 38.968C38.2334 39.7147 38.3987 40.3387 38.7294 40.84C39.06 41.3413 39.5294 41.592 40.1374 41.592C40.7667 41.592 41.2414 41.3467 41.5614 40.856C41.8814 40.3653 42.0414 39.7413 42.0414 38.984C42.0414 38.2053 41.8867 37.5707 41.5774 37.08C41.268 36.5787 40.7827 36.328 40.1214 36.328Z" fill="black"/>
<path opacity="0.8" d="M26.12 58.664V60.616C25.32 60.136 24.4667 59.896 23.56 59.896C23.0587 59.896 22.664 60.008 22.376 60.232C22.0987 60.456 21.96 60.744 21.96 61.096C21.96 61.448 22.1093 61.7413 22.408 61.976C22.7173 62.2 23.176 62.4507 23.784 62.728C24.2107 62.92 24.5573 63.0907 24.824 63.24C25.0907 63.3787 25.3787 63.576 25.688 63.832C26.008 64.088 26.2427 64.3973 26.392 64.76C26.552 65.112 26.632 65.5173 26.632 65.976C26.632 66.936 26.2853 67.704 25.592 68.28C24.9093 68.8453 24.008 69.128 22.888 69.128C21.672 69.128 20.664 68.8987 19.864 68.44V66.376C20.7813 67.0373 21.784 67.368 22.872 67.368C23.3627 67.368 23.7573 67.2507 24.056 67.016C24.3547 66.7707 24.504 66.4453 24.504 66.04C24.504 65.848 24.4667 65.6773 24.392 65.528C24.3173 65.3787 24.1627 65.2293 23.928 65.08C23.704 64.9307 23.528 64.824 23.4 64.76C23.2827 64.696 23.032 64.5787 22.648 64.408C22.5413 64.3547 22.4613 64.3173 22.408 64.296C22.0133 64.1147 21.6933 63.9547 21.448 63.816C21.2027 63.6667 20.936 63.4693 20.648 63.224C20.36 62.9787 20.1413 62.6853 19.992 62.344C19.8533 62.0027 19.784 61.6133 19.784 61.176C19.784 60.2587 20.12 59.5227 20.792 58.968C21.4747 58.4133 22.376 58.136 23.496 58.136C24.5093 58.136 25.384 58.312 26.12 58.664ZM30.2413 60.888V62.328C30.6146 61.3253 31.2973 60.824 32.2893 60.824C32.5133 60.824 32.6946 60.84 32.8333 60.872V62.728C32.5879 62.6213 32.3159 62.568 32.0173 62.568C31.4946 62.568 31.0679 62.7813 30.7373 63.208C30.4066 63.6347 30.2413 64.168 30.2413 64.808V69H28.3053L28.3213 60.888H30.2413ZM34.0419 69V60.888H35.9619V69H34.0419ZM33.8499 58.456C33.8499 58.136 33.9619 57.864 34.1859 57.64C34.4099 57.416 34.6819 57.304 35.0019 57.304C35.3219 57.304 35.5939 57.416 35.8179 57.64C36.0419 57.864 36.1539 58.136 36.1539 58.456C36.1539 58.7867 36.0419 59.064 35.8179 59.288C35.5939 59.512 35.3219 59.624 35.0019 59.624C34.6819 59.624 34.4099 59.512 34.1859 59.288C33.9619 59.064 33.8499 58.7867 33.8499 58.456Z" fill="black"/>
<path opacity="0.8" d="M27.976 84.664V86.632C27.1653 86.1627 26.2693 85.928 25.288 85.928C24.3067 85.928 23.4853 86.264 22.824 86.936C22.1733 87.5973 21.848 88.488 21.848 89.608C21.848 90.728 22.1733 91.6187 22.824 92.28C23.4853 92.9413 24.344 93.272 25.4 93.272C26.4133 93.272 27.2773 93.0053 27.992 92.472V94.488C27.3307 94.9147 26.4027 95.128 25.208 95.128C23.608 95.128 22.2853 94.6267 21.24 93.624C20.2053 92.6107 19.688 91.272 19.688 89.608C19.688 87.976 20.2 86.648 21.224 85.624C22.2587 84.5893 23.5867 84.072 25.208 84.072C26.392 84.072 27.3147 84.2693 27.976 84.664ZM25.72 83.432H24.024L21.704 80.728H23.576L24.872 82.312L26.168 80.728H28.04L25.72 83.432ZM34.67 90.28V90.04C34.6487 89.5173 34.5047 89.1013 34.238 88.792C33.982 88.472 33.6033 88.312 33.102 88.312C32.6433 88.312 32.2433 88.4827 31.902 88.824C31.5713 89.1547 31.358 89.64 31.262 90.28H34.67ZM35.982 92.888V94.552C35.4167 94.904 34.6007 95.08 33.534 95.08C32.2433 95.08 31.2247 94.696 30.478 93.928C29.7313 93.16 29.358 92.168 29.358 90.952C29.358 89.6613 29.71 88.648 30.414 87.912C31.118 87.176 31.998 86.808 33.054 86.808C34.11 86.808 34.9473 87.128 35.566 87.768C36.1847 88.408 36.494 89.3413 36.494 90.568C36.494 90.8667 36.4567 91.2507 36.382 91.72H31.294C31.4327 92.3067 31.7207 92.7547 32.158 93.064C32.606 93.3733 33.1607 93.528 33.822 93.528C34.6753 93.528 35.3953 93.3147 35.982 92.888ZM40.5948 88.328V92.456C40.5948 92.7973 40.6854 93.0587 40.8668 93.24C41.0481 93.4107 41.2988 93.496 41.6188 93.496C42.0241 93.496 42.3974 93.384 42.7388 93.16V94.808C42.3654 94.9893 41.8854 95.08 41.2988 95.08C39.5494 95.08 38.6748 94.1947 38.6748 92.424V88.328H37.4588V86.888H38.6748V84.936H40.5948V86.888H42.6108V88.328H40.5948Z" fill="black"/>
<path opacity="0.8" d="M22.136 115.704H23.272C24.008 115.704 24.5573 115.528 24.92 115.176C25.2827 114.824 25.464 114.349 25.464 113.752C25.464 113.165 25.2827 112.707 24.92 112.376C24.5573 112.035 24.024 111.864 23.32 111.864H22.136V115.704ZM20.12 110.216H23.496C24.712 110.216 25.6827 110.547 26.408 111.208C27.144 111.869 27.512 112.717 27.512 113.752C27.512 114.851 27.1333 115.725 26.376 116.376C25.6293 117.016 24.6853 117.336 23.544 117.336H22.136V121H20.12V110.216ZM33.8106 116.28V116.04C33.7893 115.517 33.6453 115.101 33.3786 114.792C33.1226 114.472 32.744 114.312 32.2426 114.312C31.784 114.312 31.384 114.483 31.0426 114.824C30.712 115.155 30.4986 115.64 30.4026 116.28H33.8106ZM35.1226 118.888V120.552C34.5573 120.904 33.7413 121.08 32.6746 121.08C31.384 121.08 30.3653 120.696 29.6186 119.928C28.872 119.16 28.4986 118.168 28.4986 116.952C28.4986 115.661 28.8506 114.648 29.5546 113.912C30.2586 113.176 31.1386 112.808 32.1946 112.808C33.2506 112.808 34.088 113.128 34.7066 113.768C35.3253 114.408 35.6346 115.341 35.6346 116.568C35.6346 116.867 35.5973 117.251 35.5226 117.72H30.4346C30.5733 118.307 30.8613 118.755 31.2986 119.064C31.7466 119.373 32.3013 119.528 32.9626 119.528C33.816 119.528 34.536 119.315 35.1226 118.888ZM39.7354 114.328V118.456C39.7354 118.797 39.826 119.059 40.0074 119.24C40.1887 119.411 40.4394 119.496 40.7594 119.496C41.1647 119.496 41.538 119.384 41.8794 119.16V120.808C41.506 120.989 41.026 121.08 40.4394 121.08C38.69 121.08 37.8154 120.195 37.8154 118.424V114.328H36.5994V112.888H37.8154V110.936H39.7354V112.888H41.7514V114.328H39.7354Z" fill="black"/>
<path opacity="0.8" d="M26.12 136.664V138.616C25.32 138.136 24.4667 137.896 23.56 137.896C23.0587 137.896 22.664 138.008 22.376 138.232C22.0987 138.456 21.96 138.744 21.96 139.096C21.96 139.448 22.1093 139.741 22.408 139.976C22.7173 140.2 23.176 140.451 23.784 140.728C24.2107 140.92 24.5573 141.091 24.824 141.24C25.0907 141.379 25.3787 141.576 25.688 141.832C26.008 142.088 26.2427 142.397 26.392 142.76C26.552 143.112 26.632 143.517 26.632 143.976C26.632 144.936 26.2853 145.704 25.592 146.28C24.9093 146.845 24.008 147.128 22.888 147.128C21.672 147.128 20.664 146.899 19.864 146.44V144.376C20.7813 145.037 21.784 145.368 22.872 145.368C23.3627 145.368 23.7573 145.251 24.056 145.016C24.3547 144.771 24.504 144.445 24.504 144.04C24.504 143.848 24.4667 143.677 24.392 143.528C24.3173 143.379 24.1627 143.229 23.928 143.08C23.704 142.931 23.528 142.824 23.4 142.76C23.2827 142.696 23.032 142.579 22.648 142.408C22.5413 142.355 22.4613 142.317 22.408 142.296C22.0133 142.115 21.6933 141.955 21.448 141.816C21.2027 141.667 20.936 141.469 20.648 141.224C20.36 140.979 20.1413 140.685 19.992 140.344C19.8533 140.003 19.784 139.613 19.784 139.176C19.784 138.259 20.12 137.523 20.792 136.968C21.4747 136.413 22.376 136.136 23.496 136.136C24.5093 136.136 25.384 136.312 26.12 136.664ZM33.3453 138.888H35.2812V147H33.3453V145.672C32.9186 146.611 32.0866 147.08 30.8493 147.08C30.0279 147.08 29.3879 146.845 28.9293 146.376C28.4706 145.907 28.2413 145.24 28.2413 144.376V138.888H30.1613V143.928C30.1613 144.44 30.2839 144.829 30.5293 145.096C30.7853 145.363 31.1319 145.496 31.5693 145.496C32.1239 145.496 32.5559 145.309 32.8653 144.936C33.1853 144.563 33.3453 143.997 33.3453 143.24V138.888ZM41.3361 145.464C41.8908 145.464 42.3548 145.235 42.7281 144.776C43.1015 144.317 43.2881 143.72 43.2881 142.984C43.2881 142.173 43.0961 141.544 42.7121 141.096C42.3388 140.637 41.8748 140.408 41.3201 140.408C40.7975 140.408 40.3335 140.616 39.9281 141.032C39.5228 141.437 39.3201 142.051 39.3201 142.872C39.3201 143.715 39.5121 144.36 39.8961 144.808C40.2801 145.245 40.7601 145.464 41.3361 145.464ZM39.3201 135.688V140.12C39.8855 139.224 40.6961 138.776 41.7521 138.776C42.7655 138.776 43.5975 139.155 44.2481 139.912C44.9095 140.659 45.2401 141.672 45.2401 142.952C45.2401 144.104 44.9255 145.085 44.2961 145.896C43.6775 146.707 42.8348 147.112 41.7681 147.112C40.7015 147.112 39.8855 146.659 39.3201 145.752V147H37.3841V135.688H39.3201Z" fill="black"/>
<path opacity="0.8" d="M20.12 173V162.216H22.408L25 166.712C25.4267 167.448 25.8053 168.136 26.136 168.776C26.4773 169.405 26.7067 169.853 26.824 170.12L27 170.52C26.9147 169.635 26.872 168.365 26.872 166.712V162.216H28.904V173H26.6L23.976 168.52C23.56 167.816 23.1813 167.144 22.84 166.504C22.5093 165.853 22.28 165.384 22.152 165.096L21.96 164.648C22.0773 165.661 22.136 166.947 22.136 168.504V173H20.12ZM35.9356 168.28V168.04C35.9143 167.517 35.7703 167.101 35.5036 166.792C35.2476 166.472 34.869 166.312 34.3676 166.312C33.909 166.312 33.509 166.483 33.1676 166.824C32.837 167.155 32.6236 167.64 32.5276 168.28H35.9356ZM37.2476 170.888V172.552C36.6823 172.904 35.8663 173.08 34.7996 173.08C33.509 173.08 32.4903 172.696 31.7436 171.928C30.997 171.16 30.6236 170.168 30.6236 168.952C30.6236 167.661 30.9756 166.648 31.6796 165.912C32.3836 165.176 33.2636 164.808 34.3196 164.808C35.3756 164.808 36.213 165.128 36.8316 165.768C37.4503 166.408 37.7596 167.341 37.7596 168.568C37.7596 168.867 37.7223 169.251 37.6476 169.72H32.5596C32.6983 170.307 32.9863 170.755 33.4236 171.064C33.8716 171.373 34.4263 171.528 35.0876 171.528C35.941 171.528 36.661 171.315 37.2476 170.888ZM43.0124 171.464C43.5884 171.464 44.0684 171.245 44.4524 170.808C44.8364 170.36 45.0284 169.715 45.0284 168.872C45.0284 168.051 44.8257 167.437 44.4204 167.032C44.015 166.616 43.551 166.408 43.0284 166.408C42.4737 166.408 42.0044 166.637 41.6204 167.096C41.247 167.544 41.0604 168.173 41.0604 168.984C41.0604 169.72 41.247 170.317 41.6204 170.776C41.9937 171.235 42.4577 171.464 43.0124 171.464ZM45.0284 161.688H46.9484V173H45.0284V171.736C44.4737 172.653 43.6524 173.112 42.5644 173.112C41.4977 173.112 40.6497 172.707 40.0204 171.896C39.4017 171.085 39.0924 170.104 39.0924 168.952C39.0924 167.672 39.4177 166.659 40.0684 165.912C40.7297 165.155 41.5724 164.776 42.5964 164.776C43.6524 164.776 44.463 165.229 45.0284 166.136V161.688Z" fill="black"/>
<path opacity="0.8" d="M69.688 37.736C69.688 36.0933 70.0187 34.7973 70.68 33.848C71.352 32.888 72.232 32.408 73.32 32.408C74.4507 32.408 75.3467 32.888 76.008 33.848C76.68 34.7973 77.016 36.0933 77.016 37.736C77.016 39.368 76.696 40.6747 76.056 41.656C75.416 42.6373 74.504 43.128 73.32 43.128C72.2213 43.128 71.3413 42.6373 70.68 41.656C70.0187 40.6747 69.688 39.368 69.688 37.736ZM71.672 34.696C71.2133 35.4107 70.984 36.424 70.984 37.736C70.984 39.048 71.208 40.0773 71.656 40.824C72.104 41.56 72.6587 41.928 73.32 41.928C74.056 41.928 74.6373 41.5653 75.064 40.84C75.5013 40.1147 75.72 39.08 75.72 37.736C75.72 36.4027 75.4907 35.384 75.032 34.68C74.584 33.9653 74.0133 33.608 73.32 33.608C72.68 33.608 72.1307 33.9707 71.672 34.696ZM81.9431 42.008C82.6578 42.008 83.2071 41.832 83.5911 41.48C83.9751 41.128 84.1671 40.6907 84.1671 40.168C84.1671 39.656 83.9805 39.224 83.6071 38.872C83.2338 38.52 82.6791 38.3493 81.9431 38.36C81.2285 38.3707 80.6898 38.5627 80.3271 38.936C79.9751 39.2987 79.7991 39.752 79.7991 40.296C79.7991 40.7867 79.9858 41.1973 80.3591 41.528C80.7325 41.848 81.2605 42.008 81.9431 42.008ZM81.9271 33.544C81.3298 33.544 80.8551 33.72 80.5031 34.072C80.1511 34.424 79.9751 34.8507 79.9751 35.352C79.9751 35.96 80.1618 36.4187 80.5351 36.728C80.9191 37.0373 81.4045 37.192 81.9911 37.192C82.5565 37.192 83.0205 37.032 83.3831 36.712C83.7458 36.3813 83.9271 35.9227 83.9271 35.336C83.9271 34.824 83.7565 34.3973 83.4151 34.056C83.0738 33.7147 82.5778 33.544 81.9271 33.544ZM83.5271 37.752C84.8178 38.1467 85.4631 38.9893 85.4631 40.28C85.4631 41.144 85.1271 41.8373 84.4551 42.36C83.7831 42.872 82.9405 43.128 81.9271 43.128C80.9565 43.128 80.1458 42.8773 79.4951 42.376C78.8445 41.8747 78.5191 41.2027 78.5191 40.36C78.5191 39.7307 78.6845 39.1973 79.0151 38.76C79.3565 38.312 79.8205 37.9867 80.4071 37.784C79.2658 37.3467 78.6951 36.5413 78.6951 35.368C78.6951 34.44 79.0151 33.72 79.6551 33.208C80.2951 32.6853 81.0525 32.424 81.9271 32.424C82.8338 32.424 83.6071 32.68 84.2471 33.192C84.8871 33.6933 85.2071 34.424 85.2071 35.384C85.2071 35.928 85.0578 36.408 84.7591 36.824C84.4605 37.2293 84.0498 37.5387 83.5271 37.752ZM87.2253 36.92C87.2253 36.664 87.3106 36.4453 87.4813 36.264C87.6626 36.0827 87.8866 35.992 88.1533 35.992C88.4199 35.992 88.6439 36.0827 88.8253 36.264C89.0066 36.4453 89.0973 36.664 89.0973 36.92C89.0973 37.1867 89.0066 37.4107 88.8253 37.592C88.6439 37.7627 88.4199 37.848 88.1533 37.848C87.8866 37.848 87.6626 37.7627 87.4813 37.592C87.3106 37.4107 87.2253 37.1867 87.2253 36.92ZM87.4813 42.76C87.3106 42.5787 87.2253 42.3547 87.2253 42.088C87.2253 41.8213 87.3106 41.5973 87.4813 41.416C87.6626 41.2347 87.8866 41.144 88.1533 41.144C88.4199 41.144 88.6439 41.2347 88.8253 41.416C89.0066 41.5973 89.0973 41.8213 89.0973 42.088C89.0973 42.3547 89.0066 42.5787 88.8253 42.76C88.6439 42.9307 88.4199 43.016 88.1533 43.016C87.8866 43.016 87.6626 42.9307 87.4813 42.76ZM90.7349 37.736C90.7349 36.0933 91.0655 34.7973 91.7269 33.848C92.3989 32.888 93.2789 32.408 94.3669 32.408C95.4975 32.408 96.3935 32.888 97.0549 33.848C97.7269 34.7973 98.0629 36.0933 98.0629 37.736C98.0629 39.368 97.7429 40.6747 97.1029 41.656C96.4629 42.6373 95.5509 43.128 94.3669 43.128C93.2682 43.128 92.3882 42.6373 91.7269 41.656C91.0655 40.6747 90.7349 39.368 90.7349 37.736ZM92.7189 34.696C92.2602 35.4107 92.0309 36.424 92.0309 37.736C92.0309 39.048 92.2549 40.0773 92.7029 40.824C93.1509 41.56 93.7055 41.928 94.3669 41.928C95.1029 41.928 95.6842 41.5653 96.1109 40.84C96.5482 40.1147 96.7669 39.08 96.7669 37.736C96.7669 36.4027 96.5375 35.384 96.0789 34.68C95.6309 33.9653 95.0602 33.608 94.3669 33.608C93.7269 33.608 93.1775 33.9707 92.7189 34.696ZM99.438 37.736C99.438 36.0933 99.7687 34.7973 100.43 33.848C101.102 32.888 101.982 32.408 103.07 32.408C104.201 32.408 105.097 32.888 105.758 33.848C106.43 34.7973 106.766 36.0933 106.766 37.736C106.766 39.368 106.446 40.6747 105.806 41.656C105.166 42.6373 104.254 43.128 103.07 43.128C101.971 43.128 101.091 42.6373 100.43 41.656C99.7687 40.6747 99.438 39.368 99.438 37.736ZM101.422 34.696C100.963 35.4107 100.734 36.424 100.734 37.736C100.734 39.048 100.958 40.0773 101.406 40.824C101.854 41.56 102.409 41.928 103.07 41.928C103.806 41.928 104.387 41.5653 104.814 40.84C105.251 40.1147 105.47 39.08 105.47 37.736C105.47 36.4027 105.241 35.384 104.782 34.68C104.334 33.9653 103.763 33.608 103.07 33.608C102.43 33.608 101.881 33.9707 101.422 34.696ZM112.271 39.256V38.152H116.015V39.256H112.271ZM121.116 35.4V34.04L123.596 32.536H124.78V43H123.532V33.912L121.116 35.4ZM130.24 42.008C130.955 42.008 131.504 41.832 131.888 41.48C132.272 41.128 132.464 40.6907 132.464 40.168C132.464 39.656 132.277 39.224 131.904 38.872C131.531 38.52 130.976 38.3493 130.24 38.36C129.525 38.3707 128.987 38.5627 128.624 38.936C128.272 39.2987 128.096 39.752 128.096 40.296C128.096 40.7867 128.283 41.1973 128.656 41.528C129.029 41.848 129.557 42.008 130.24 42.008ZM130.224 33.544C129.627 33.544 129.152 33.72 128.8 34.072C128.448 34.424 128.272 34.8507 128.272 35.352C128.272 35.96 128.459 36.4187 128.832 36.728C129.216 37.0373 129.701 37.192 130.288 37.192C130.853 37.192 131.317 37.032 131.68 36.712C132.043 36.3813 132.224 35.9227 132.224 35.336C132.224 34.824 132.053 34.3973 131.712 34.056C131.371 33.7147 130.875 33.544 130.224 33.544ZM131.824 37.752C133.115 38.1467 133.76 38.9893 133.76 40.28C133.76 41.144 133.424 41.8373 132.752 42.36C132.08 42.872 131.237 43.128 130.224 43.128C129.253 43.128 128.443 42.8773 127.792 42.376C127.141 41.8747 126.816 41.2027 126.816 40.36C126.816 39.7307 126.981 39.1973 127.312 38.76C127.653 38.312 128.117 37.9867 128.704 37.784C127.563 37.3467 126.992 36.5413 126.992 35.368C126.992 34.44 127.312 33.72 127.952 33.208C128.592 32.6853 129.349 32.424 130.224 32.424C131.131 32.424 131.904 32.68 132.544 33.192C133.184 33.6933 133.504 34.424 133.504 35.384C133.504 35.928 133.355 36.408 133.056 36.824C132.757 37.2293 132.347 37.5387 131.824 37.752ZM135.522 36.92C135.522 36.664 135.607 36.4453 135.778 36.264C135.959 36.0827 136.183 35.992 136.45 35.992C136.717 35.992 136.941 36.0827 137.122 36.264C137.303 36.4453 137.394 36.664 137.394 36.92C137.394 37.1867 137.303 37.4107 137.122 37.592C136.941 37.7627 136.717 37.848 136.45 37.848C136.183 37.848 135.959 37.7627 135.778 37.592C135.607 37.4107 135.522 37.1867 135.522 36.92ZM135.778 42.76C135.607 42.5787 135.522 42.3547 135.522 42.088C135.522 41.8213 135.607 41.5973 135.778 41.416C135.959 41.2347 136.183 41.144 136.45 41.144C136.717 41.144 136.941 41.2347 137.122 41.416C137.303 41.5973 137.394 41.8213 137.394 42.088C137.394 42.3547 137.303 42.5787 137.122 42.76C136.941 42.9307 136.717 43.016 136.45 43.016C136.183 43.016 135.959 42.9307 135.778 42.76ZM139.032 37.736C139.032 36.0933 139.362 34.7973 140.024 33.848C140.696 32.888 141.576 32.408 142.664 32.408C143.794 32.408 144.69 32.888 145.352 33.848C146.024 34.7973 146.36 36.0933 146.36 37.736C146.36 39.368 146.04 40.6747 145.4 41.656C144.76 42.6373 143.848 43.128 142.664 43.128C141.565 43.128 140.685 42.6373 140.024 41.656C139.362 40.6747 139.032 39.368 139.032 37.736ZM141.016 34.696C140.557 35.4107 140.328 36.424 140.328 37.736C140.328 39.048 140.552 40.0773 141 40.824C141.448 41.56 142.002 41.928 142.664 41.928C143.4 41.928 143.981 41.5653 144.408 40.84C144.845 40.1147 145.064 39.08 145.064 37.736C145.064 36.4027 144.834 35.384 144.376 34.68C143.928 33.9653 143.357 33.608 142.664 33.608C142.024 33.608 141.474 33.9707 141.016 34.696ZM147.735 37.736C147.735 36.0933 148.066 34.7973 148.727 33.848C149.399 32.888 150.279 32.408 151.367 32.408C152.498 32.408 153.394 32.888 154.055 33.848C154.727 34.7973 155.063 36.0933 155.063 37.736C155.063 39.368 154.743 40.6747 154.103 41.656C153.463 42.6373 152.551 43.128 151.367 43.128C150.268 43.128 149.388 42.6373 148.727 41.656C148.066 40.6747 147.735 39.368 147.735 37.736ZM149.719 34.696C149.26 35.4107 149.031 36.424 149.031 37.736C149.031 39.048 149.255 40.0773 149.703 40.824C150.151 41.56 150.706 41.928 151.367 41.928C152.103 41.928 152.684 41.5653 153.111 40.84C153.548 40.1147 153.767 39.08 153.767 37.736C153.767 36.4027 153.538 35.384 153.079 34.68C152.631 33.9653 152.06 33.608 151.367 33.608C150.727 33.608 150.178 33.9707 149.719 34.696Z" fill="black"/>
<path opacity="0.8" d="M69.688 63.736C69.688 62.0933 70.0187 60.7973 70.68 59.848C71.352 58.888 72.232 58.408 73.32 58.408C74.4507 58.408 75.3467 58.888 76.008 59.848C76.68 60.7973 77.016 62.0933 77.016 63.736C77.016 65.368 76.696 66.6747 76.056 67.656C75.416 68.6373 74.504 69.128 73.32 69.128C72.2213 69.128 71.3413 68.6373 70.68 67.656C70.0187 66.6747 69.688 65.368 69.688 63.736ZM71.672 60.696C71.2133 61.4107 70.984 62.424 70.984 63.736C70.984 65.048 71.208 66.0773 71.656 66.824C72.104 67.56 72.6587 67.928 73.32 67.928C74.056 67.928 74.6373 67.5653 75.064 66.84C75.5013 66.1147 75.72 65.08 75.72 63.736C75.72 62.4027 75.4907 61.384 75.032 60.68C74.584 59.9653 74.0133 59.608 73.32 59.608C72.68 59.608 72.1307 59.9707 71.672 60.696ZM81.9431 68.008C82.6578 68.008 83.2071 67.832 83.5911 67.48C83.9751 67.128 84.1671 66.6907 84.1671 66.168C84.1671 65.656 83.9805 65.224 83.6071 64.872C83.2338 64.52 82.6791 64.3493 81.9431 64.36C81.2285 64.3707 80.6898 64.5627 80.3271 64.936C79.9751 65.2987 79.7991 65.752 79.7991 66.296C79.7991 66.7867 79.9858 67.1973 80.3591 67.528C80.7325 67.848 81.2605 68.008 81.9431 68.008ZM81.9271 59.544C81.3298 59.544 80.8551 59.72 80.5031 60.072C80.1511 60.424 79.9751 60.8507 79.9751 61.352C79.9751 61.96 80.1618 62.4187 80.5351 62.728C80.9191 63.0373 81.4045 63.192 81.9911 63.192C82.5565 63.192 83.0205 63.032 83.3831 62.712C83.7458 62.3813 83.9271 61.9227 83.9271 61.336C83.9271 60.824 83.7565 60.3973 83.4151 60.056C83.0738 59.7147 82.5778 59.544 81.9271 59.544ZM83.5271 63.752C84.8178 64.1467 85.4631 64.9893 85.4631 66.28C85.4631 67.144 85.1271 67.8373 84.4551 68.36C83.7831 68.872 82.9405 69.128 81.9271 69.128C80.9565 69.128 80.1458 68.8773 79.4951 68.376C78.8445 67.8747 78.5191 67.2027 78.5191 66.36C78.5191 65.7307 78.6845 65.1973 79.0151 64.76C79.3565 64.312 79.8205 63.9867 80.4071 63.784C79.2658 63.3467 78.6951 62.5413 78.6951 61.368C78.6951 60.44 79.0151 59.72 79.6551 59.208C80.2951 58.6853 81.0525 58.424 81.9271 58.424C82.8338 58.424 83.6071 58.68 84.2471 59.192C84.8871 59.6933 85.2071 60.424 85.2071 61.384C85.2071 61.928 85.0578 62.408 84.7591 62.824C84.4605 63.2293 84.0498 63.5387 83.5271 63.752ZM87.2253 62.92C87.2253 62.664 87.3106 62.4453 87.4813 62.264C87.6626 62.0827 87.8866 61.992 88.1533 61.992C88.4199 61.992 88.6439 62.0827 88.8253 62.264C89.0066 62.4453 89.0973 62.664 89.0973 62.92C89.0973 63.1867 89.0066 63.4107 88.8253 63.592C88.6439 63.7627 88.4199 63.848 88.1533 63.848C87.8866 63.848 87.6626 63.7627 87.4813 63.592C87.3106 63.4107 87.2253 63.1867 87.2253 62.92ZM87.4813 68.76C87.3106 68.5787 87.2253 68.3547 87.2253 68.088C87.2253 67.8213 87.3106 67.5973 87.4813 67.416C87.6626 67.2347 87.8866 67.144 88.1533 67.144C88.4199 67.144 88.6439 67.2347 88.8253 67.416C89.0066 67.5973 89.0973 67.8213 89.0973 68.088C89.0973 68.3547 89.0066 68.5787 88.8253 68.76C88.6439 68.9307 88.4199 69.016 88.1533 69.016C87.8866 69.016 87.6626 68.9307 87.4813 68.76ZM90.7349 63.736C90.7349 62.0933 91.0655 60.7973 91.7269 59.848C92.3989 58.888 93.2789 58.408 94.3669 58.408C95.4975 58.408 96.3935 58.888 97.0549 59.848C97.7269 60.7973 98.0629 62.0933 98.0629 63.736C98.0629 65.368 97.7429 66.6747 97.1029 67.656C96.4629 68.6373 95.5509 69.128 94.3669 69.128C93.2682 69.128 92.3882 68.6373 91.7269 67.656C91.0655 66.6747 90.7349 65.368 90.7349 63.736ZM92.7189 60.696C92.2602 61.4107 92.0309 62.424 92.0309 63.736C92.0309 65.048 92.2549 66.0773 92.7029 66.824C93.1509 67.56 93.7055 67.928 94.3669 67.928C95.1029 67.928 95.6842 67.5653 96.1109 66.84C96.5482 66.1147 96.7669 65.08 96.7669 63.736C96.7669 62.4027 96.5375 61.384 96.0789 60.68C95.6309 59.9653 95.0602 59.608 94.3669 59.608C93.7269 59.608 93.1775 59.9707 92.7189 60.696ZM99.438 63.736C99.438 62.0933 99.7687 60.7973 100.43 59.848C101.102 58.888 101.982 58.408 103.07 58.408C104.201 58.408 105.097 58.888 105.758 59.848C106.43 60.7973 106.766 62.0933 106.766 63.736C106.766 65.368 106.446 66.6747 105.806 67.656C105.166 68.6373 104.254 69.128 103.07 69.128C101.971 69.128 101.091 68.6373 100.43 67.656C99.7687 66.6747 99.438 65.368 99.438 63.736ZM101.422 60.696C100.963 61.4107 100.734 62.424 100.734 63.736C100.734 65.048 100.958 66.0773 101.406 66.824C101.854 67.56 102.409 67.928 103.07 67.928C103.806 67.928 104.387 67.5653 104.814 66.84C105.251 66.1147 105.47 65.08 105.47 63.736C105.47 62.4027 105.241 61.384 104.782 60.68C104.334 59.9653 103.763 59.608 103.07 59.608C102.43 59.608 101.881 59.9707 101.422 60.696ZM112.271 65.256V64.152H116.015V65.256H112.271ZM121.116 61.4V60.04L123.596 58.536H124.78V69H123.532V59.912L121.116 61.4ZM130.24 68.008C130.955 68.008 131.504 67.832 131.888 67.48C132.272 67.128 132.464 66.6907 132.464 66.168C132.464 65.656 132.277 65.224 131.904 64.872C131.531 64.52 130.976 64.3493 130.24 64.36C129.525 64.3707 128.987 64.5627 128.624 64.936C128.272 65.2987 128.096 65.752 128.096 66.296C128.096 66.7867 128.283 67.1973 128.656 67.528C129.029 67.848 129.557 68.008 130.24 68.008ZM130.224 59.544C129.627 59.544 129.152 59.72 128.8 60.072C128.448 60.424 128.272 60.8507 128.272 61.352C128.272 61.96 128.459 62.4187 128.832 62.728C129.216 63.0373 129.701 63.192 130.288 63.192C130.853 63.192 131.317 63.032 131.68 62.712C132.043 62.3813 132.224 61.9227 132.224 61.336C132.224 60.824 132.053 60.3973 131.712 60.056C131.371 59.7147 130.875 59.544 130.224 59.544ZM131.824 63.752C133.115 64.1467 133.76 64.9893 133.76 66.28C133.76 67.144 133.424 67.8373 132.752 68.36C132.08 68.872 131.237 69.128 130.224 69.128C129.253 69.128 128.443 68.8773 127.792 68.376C127.141 67.8747 126.816 67.2027 126.816 66.36C126.816 65.7307 126.981 65.1973 127.312 64.76C127.653 64.312 128.117 63.9867 128.704 63.784C127.563 63.3467 126.992 62.5413 126.992 61.368C126.992 60.44 127.312 59.72 127.952 59.208C128.592 58.6853 129.349 58.424 130.224 58.424C131.131 58.424 131.904 58.68 132.544 59.192C133.184 59.6933 133.504 60.424 133.504 61.384C133.504 61.928 133.355 62.408 133.056 62.824C132.757 63.2293 132.347 63.5387 131.824 63.752ZM135.522 62.92C135.522 62.664 135.607 62.4453 135.778 62.264C135.959 62.0827 136.183 61.992 136.45 61.992C136.717 61.992 136.941 62.0827 137.122 62.264C137.303 62.4453 137.394 62.664 137.394 62.92C137.394 63.1867 137.303 63.4107 137.122 63.592C136.941 63.7627 136.717 63.848 136.45 63.848C136.183 63.848 135.959 63.7627 135.778 63.592C135.607 63.4107 135.522 63.1867 135.522 62.92ZM135.778 68.76C135.607 68.5787 135.522 68.3547 135.522 68.088C135.522 67.8213 135.607 67.5973 135.778 67.416C135.959 67.2347 136.183 67.144 136.45 67.144C136.717 67.144 136.941 67.2347 137.122 67.416C137.303 67.5973 137.394 67.8213 137.394 68.088C137.394 68.3547 137.303 68.5787 137.122 68.76C136.941 68.9307 136.717 69.016 136.45 69.016C136.183 69.016 135.959 68.9307 135.778 68.76ZM139.032 63.736C139.032 62.0933 139.362 60.7973 140.024 59.848C140.696 58.888 141.576 58.408 142.664 58.408C143.794 58.408 144.69 58.888 145.352 59.848C146.024 60.7973 146.36 62.0933 146.36 63.736C146.36 65.368 146.04 66.6747 145.4 67.656C144.76 68.6373 143.848 69.128 142.664 69.128C141.565 69.128 140.685 68.6373 140.024 67.656C139.362 66.6747 139.032 65.368 139.032 63.736ZM141.016 60.696C140.557 61.4107 140.328 62.424 140.328 63.736C140.328 65.048 140.552 66.0773 141 66.824C141.448 67.56 142.002 67.928 142.664 67.928C143.4 67.928 143.981 67.5653 144.408 66.84C144.845 66.1147 145.064 65.08 145.064 63.736C145.064 62.4027 144.834 61.384 144.376 60.68C143.928 59.9653 143.357 59.608 142.664 59.608C142.024 59.608 141.474 59.9707 141.016 60.696ZM147.735 63.736C147.735 62.0933 148.066 60.7973 148.727 59.848C149.399 58.888 150.279 58.408 151.367 58.408C152.498 58.408 153.394 58.888 154.055 59.848C154.727 60.7973 155.063 62.0933 155.063 63.736C155.063 65.368 154.743 66.6747 154.103 67.656C153.463 68.6373 152.551 69.128 151.367 69.128C150.268 69.128 149.388 68.6373 148.727 67.656C148.066 66.6747 147.735 65.368 147.735 63.736ZM149.719 60.696C149.26 61.4107 149.031 62.424 149.031 63.736C149.031 65.048 149.255 66.0773 149.703 66.824C150.151 67.56 150.706 67.928 151.367 67.928C152.103 67.928 152.684 67.5653 153.111 66.84C153.548 66.1147 153.767 65.08 153.767 63.736C153.767 62.4027 153.538 61.384 153.079 60.68C152.631 59.9653 152.06 59.608 151.367 59.608C150.727 59.608 150.178 59.9707 149.719 60.696Z" fill="black"/>
<path opacity="0.8" d="M69.688 89.736C69.688 88.0933 70.0187 86.7973 70.68 85.848C71.352 84.888 72.232 84.408 73.32 84.408C74.4507 84.408 75.3467 84.888 76.008 85.848C76.68 86.7973 77.016 88.0933 77.016 89.736C77.016 91.368 76.696 92.6747 76.056 93.656C75.416 94.6373 74.504 95.128 73.32 95.128C72.2213 95.128 71.3413 94.6373 70.68 93.656C70.0187 92.6747 69.688 91.368 69.688 89.736ZM71.672 86.696C71.2133 87.4107 70.984 88.424 70.984 89.736C70.984 91.048 71.208 92.0773 71.656 92.824C72.104 93.56 72.6587 93.928 73.32 93.928C74.056 93.928 74.6373 93.5653 75.064 92.84C75.5013 92.1147 75.72 91.08 75.72 89.736C75.72 88.4027 75.4907 87.384 75.032 86.68C74.584 85.9653 74.0133 85.608 73.32 85.608C72.68 85.608 72.1307 85.9707 71.672 86.696ZM81.9431 94.008C82.6578 94.008 83.2071 93.832 83.5911 93.48C83.9751 93.128 84.1671 92.6907 84.1671 92.168C84.1671 91.656 83.9805 91.224 83.6071 90.872C83.2338 90.52 82.6791 90.3493 81.9431 90.36C81.2285 90.3707 80.6898 90.5627 80.3271 90.936C79.9751 91.2987 79.7991 91.752 79.7991 92.296C79.7991 92.7867 79.9858 93.1973 80.3591 93.528C80.7325 93.848 81.2605 94.008 81.9431 94.008ZM81.9271 85.544C81.3298 85.544 80.8551 85.72 80.5031 86.072C80.1511 86.424 79.9751 86.8507 79.9751 87.352C79.9751 87.96 80.1618 88.4187 80.5351 88.728C80.9191 89.0373 81.4045 89.192 81.9911 89.192C82.5565 89.192 83.0205 89.032 83.3831 88.712C83.7458 88.3813 83.9271 87.9227 83.9271 87.336C83.9271 86.824 83.7565 86.3973 83.4151 86.056C83.0738 85.7147 82.5778 85.544 81.9271 85.544ZM83.5271 89.752C84.8178 90.1467 85.4631 90.9893 85.4631 92.28C85.4631 93.144 85.1271 93.8373 84.4551 94.36C83.7831 94.872 82.9405 95.128 81.9271 95.128C80.9565 95.128 80.1458 94.8773 79.4951 94.376C78.8445 93.8747 78.5191 93.2027 78.5191 92.36C78.5191 91.7307 78.6845 91.1973 79.0151 90.76C79.3565 90.312 79.8205 89.9867 80.4071 89.784C79.2658 89.3467 78.6951 88.5413 78.6951 87.368C78.6951 86.44 79.0151 85.72 79.6551 85.208C80.2951 84.6853 81.0525 84.424 81.9271 84.424C82.8338 84.424 83.6071 84.68 84.2471 85.192C84.8871 85.6933 85.2071 86.424 85.2071 87.384C85.2071 87.928 85.0578 88.408 84.7591 88.824C84.4605 89.2293 84.0498 89.5387 83.5271 89.752ZM87.2253 88.92C87.2253 88.664 87.3106 88.4453 87.4813 88.264C87.6626 88.0827 87.8866 87.992 88.1533 87.992C88.4199 87.992 88.6439 88.0827 88.8253 88.264C89.0066 88.4453 89.0973 88.664 89.0973 88.92C89.0973 89.1867 89.0066 89.4107 88.8253 89.592C88.6439 89.7627 88.4199 89.848 88.1533 89.848C87.8866 89.848 87.6626 89.7627 87.4813 89.592C87.3106 89.4107 87.2253 89.1867 87.2253 88.92ZM87.4813 94.76C87.3106 94.5787 87.2253 94.3547 87.2253 94.088C87.2253 93.8213 87.3106 93.5973 87.4813 93.416C87.6626 93.2347 87.8866 93.144 88.1533 93.144C88.4199 93.144 88.6439 93.2347 88.8253 93.416C89.0066 93.5973 89.0973 93.8213 89.0973 94.088C89.0973 94.3547 89.0066 94.5787 88.8253 94.76C88.6439 94.9307 88.4199 95.016 88.1533 95.016C87.8866 95.016 87.6626 94.9307 87.4813 94.76ZM90.7349 89.736C90.7349 88.0933 91.0655 86.7973 91.7269 85.848C92.3989 84.888 93.2789 84.408 94.3669 84.408C95.4975 84.408 96.3935 84.888 97.0549 85.848C97.7269 86.7973 98.0629 88.0933 98.0629 89.736C98.0629 91.368 97.7429 92.6747 97.1029 93.656C96.4629 94.6373 95.5509 95.128 94.3669 95.128C93.2682 95.128 92.3882 94.6373 91.7269 93.656C91.0655 92.6747 90.7349 91.368 90.7349 89.736ZM92.7189 86.696C92.2602 87.4107 92.0309 88.424 92.0309 89.736C92.0309 91.048 92.2549 92.0773 92.7029 92.824C93.1509 93.56 93.7055 93.928 94.3669 93.928C95.1029 93.928 95.6842 93.5653 96.1109 92.84C96.5482 92.1147 96.7669 91.08 96.7669 89.736C96.7669 88.4027 96.5375 87.384 96.0789 86.68C95.6309 85.9653 95.0602 85.608 94.3669 85.608C93.7269 85.608 93.1775 85.9707 92.7189 86.696ZM99.438 89.736C99.438 88.0933 99.7687 86.7973 100.43 85.848C101.102 84.888 101.982 84.408 103.07 84.408C104.201 84.408 105.097 84.888 105.758 85.848C106.43 86.7973 106.766 88.0933 106.766 89.736C106.766 91.368 106.446 92.6747 105.806 93.656C105.166 94.6373 104.254 95.128 103.07 95.128C101.971 95.128 101.091 94.6373 100.43 93.656C99.7687 92.6747 99.438 91.368 99.438 89.736ZM101.422 86.696C100.963 87.4107 100.734 88.424 100.734 89.736C100.734 91.048 100.958 92.0773 101.406 92.824C101.854 93.56 102.409 93.928 103.07 93.928C103.806 93.928 104.387 93.5653 104.814 92.84C105.251 92.1147 105.47 91.08 105.47 89.736C105.47 88.4027 105.241 87.384 104.782 86.68C104.334 85.9653 103.763 85.608 103.07 85.608C102.43 85.608 101.881 85.9707 101.422 86.696ZM112.271 91.256V90.152H116.015V91.256H112.271ZM121.116 87.4V86.04L123.596 84.536H124.78V95H123.532V85.912L121.116 87.4ZM130.24 94.008C130.955 94.008 131.504 93.832 131.888 93.48C132.272 93.128 132.464 92.6907 132.464 92.168C132.464 91.656 132.277 91.224 131.904 90.872C131.531 90.52 130.976 90.3493 130.24 90.36C129.525 90.3707 128.987 90.5627 128.624 90.936C128.272 91.2987 128.096 91.752 128.096 92.296C128.096 92.7867 128.283 93.1973 128.656 93.528C129.029 93.848 129.557 94.008 130.24 94.008ZM130.224 85.544C129.627 85.544 129.152 85.72 128.8 86.072C128.448 86.424 128.272 86.8507 128.272 87.352C128.272 87.96 128.459 88.4187 128.832 88.728C129.216 89.0373 129.701 89.192 130.288 89.192C130.853 89.192 131.317 89.032 131.68 88.712C132.043 88.3813 132.224 87.9227 132.224 87.336C132.224 86.824 132.053 86.3973 131.712 86.056C131.371 85.7147 130.875 85.544 130.224 85.544ZM131.824 89.752C133.115 90.1467 133.76 90.9893 133.76 92.28C133.76 93.144 133.424 93.8373 132.752 94.36C132.08 94.872 131.237 95.128 130.224 95.128C129.253 95.128 128.443 94.8773 127.792 94.376C127.141 93.8747 126.816 93.2027 126.816 92.36C126.816 91.7307 126.981 91.1973 127.312 90.76C127.653 90.312 128.117 89.9867 128.704 89.784C127.563 89.3467 126.992 88.5413 126.992 87.368C126.992 86.44 127.312 85.72 127.952 85.208C128.592 84.6853 129.349 84.424 130.224 84.424C131.131 84.424 131.904 84.68 132.544 85.192C133.184 85.6933 133.504 86.424 133.504 87.384C133.504 87.928 133.355 88.408 133.056 88.824C132.757 89.2293 132.347 89.5387 131.824 89.752ZM135.522 88.92C135.522 88.664 135.607 88.4453 135.778 88.264C135.959 88.0827 136.183 87.992 136.45 87.992C136.717 87.992 136.941 88.0827 137.122 88.264C137.303 88.4453 137.394 88.664 137.394 88.92C137.394 89.1867 137.303 89.4107 137.122 89.592C136.941 89.7627 136.717 89.848 136.45 89.848C136.183 89.848 135.959 89.7627 135.778 89.592C135.607 89.4107 135.522 89.1867 135.522 88.92ZM135.778 94.76C135.607 94.5787 135.522 94.3547 135.522 94.088C135.522 93.8213 135.607 93.5973 135.778 93.416C135.959 93.2347 136.183 93.144 136.45 93.144C136.717 93.144 136.941 93.2347 137.122 93.416C137.303 93.5973 137.394 93.8213 137.394 94.088C137.394 94.3547 137.303 94.5787 137.122 94.76C136.941 94.9307 136.717 95.016 136.45 95.016C136.183 95.016 135.959 94.9307 135.778 94.76ZM139.032 89.736C139.032 88.0933 139.362 86.7973 140.024 85.848C140.696 84.888 141.576 84.408 142.664 84.408C143.794 84.408 144.69 84.888 145.352 85.848C146.024 86.7973 146.36 88.0933 146.36 89.736C146.36 91.368 146.04 92.6747 145.4 93.656C144.76 94.6373 143.848 95.128 142.664 95.128C141.565 95.128 140.685 94.6373 140.024 93.656C139.362 92.6747 139.032 91.368 139.032 89.736ZM141.016 86.696C140.557 87.4107 140.328 88.424 140.328 89.736C140.328 91.048 140.552 92.0773 141 92.824C141.448 93.56 142.002 93.928 142.664 93.928C143.4 93.928 143.981 93.5653 144.408 92.84C144.845 92.1147 145.064 91.08 145.064 89.736C145.064 88.4027 144.834 87.384 144.376 86.68C143.928 85.9653 143.357 85.608 142.664 85.608C142.024 85.608 141.474 85.9707 141.016 86.696ZM147.735 89.736C147.735 88.0933 148.066 86.7973 148.727 85.848C149.399 84.888 150.279 84.408 151.367 84.408C152.498 84.408 153.394 84.888 154.055 85.848C154.727 86.7973 155.063 88.0933 155.063 89.736C155.063 91.368 154.743 92.6747 154.103 93.656C153.463 94.6373 152.551 95.128 151.367 95.128C150.268 95.128 149.388 94.6373 148.727 93.656C148.066 92.6747 147.735 91.368 147.735 89.736ZM149.719 86.696C149.26 87.4107 149.031 88.424 149.031 89.736C149.031 91.048 149.255 92.0773 149.703 92.824C150.151 93.56 150.706 93.928 151.367 93.928C152.103 93.928 152.684 93.5653 153.111 92.84C153.548 92.1147 153.767 91.08 153.767 89.736C153.767 88.4027 153.538 87.384 153.079 86.68C152.631 85.9653 152.06 85.608 151.367 85.608C150.727 85.608 150.178 85.9707 149.719 86.696Z" fill="black"/>
<path opacity="0.8" d="M69.688 115.736C69.688 114.093 70.0187 112.797 70.68 111.848C71.352 110.888 72.232 110.408 73.32 110.408C74.4507 110.408 75.3467 110.888 76.008 111.848C76.68 112.797 77.016 114.093 77.016 115.736C77.016 117.368 76.696 118.675 76.056 119.656C75.416 120.637 74.504 121.128 73.32 121.128C72.2213 121.128 71.3413 120.637 70.68 119.656C70.0187 118.675 69.688 117.368 69.688 115.736ZM71.672 112.696C71.2133 113.411 70.984 114.424 70.984 115.736C70.984 117.048 71.208 118.077 71.656 118.824C72.104 119.56 72.6587 119.928 73.32 119.928C74.056 119.928 74.6373 119.565 75.064 118.84C75.5013 118.115 75.72 117.08 75.72 115.736C75.72 114.403 75.4907 113.384 75.032 112.68C74.584 111.965 74.0133 111.608 73.32 111.608C72.68 111.608 72.1307 111.971 71.672 112.696ZM81.9431 120.008C82.6578 120.008 83.2071 119.832 83.5911 119.48C83.9751 119.128 84.1671 118.691 84.1671 118.168C84.1671 117.656 83.9805 117.224 83.6071 116.872C83.2338 116.52 82.6791 116.349 81.9431 116.36C81.2285 116.371 80.6898 116.563 80.3271 116.936C79.9751 117.299 79.7991 117.752 79.7991 118.296C79.7991 118.787 79.9858 119.197 80.3591 119.528C80.7325 119.848 81.2605 120.008 81.9431 120.008ZM81.9271 111.544C81.3298 111.544 80.8551 111.72 80.5031 112.072C80.1511 112.424 79.9751 112.851 79.9751 113.352C79.9751 113.96 80.1618 114.419 80.5351 114.728C80.9191 115.037 81.4045 115.192 81.9911 115.192C82.5565 115.192 83.0205 115.032 83.3831 114.712C83.7458 114.381 83.9271 113.923 83.9271 113.336C83.9271 112.824 83.7565 112.397 83.4151 112.056C83.0738 111.715 82.5778 111.544 81.9271 111.544ZM83.5271 115.752C84.8178 116.147 85.4631 116.989 85.4631 118.28C85.4631 119.144 85.1271 119.837 84.4551 120.36C83.7831 120.872 82.9405 121.128 81.9271 121.128C80.9565 121.128 80.1458 120.877 79.4951 120.376C78.8445 119.875 78.5191 119.203 78.5191 118.36C78.5191 117.731 78.6845 117.197 79.0151 116.76C79.3565 116.312 79.8205 115.987 80.4071 115.784C79.2658 115.347 78.6951 114.541 78.6951 113.368C78.6951 112.44 79.0151 111.72 79.6551 111.208C80.2951 110.685 81.0525 110.424 81.9271 110.424C82.8338 110.424 83.6071 110.68 84.2471 111.192C84.8871 111.693 85.2071 112.424 85.2071 113.384C85.2071 113.928 85.0578 114.408 84.7591 114.824C84.4605 115.229 84.0498 115.539 83.5271 115.752ZM87.2253 114.92C87.2253 114.664 87.3106 114.445 87.4813 114.264C87.6626 114.083 87.8866 113.992 88.1533 113.992C88.4199 113.992 88.6439 114.083 88.8253 114.264C89.0066 114.445 89.0973 114.664 89.0973 114.92C89.0973 115.187 89.0066 115.411 88.8253 115.592C88.6439 115.763 88.4199 115.848 88.1533 115.848C87.8866 115.848 87.6626 115.763 87.4813 115.592C87.3106 115.411 87.2253 115.187 87.2253 114.92ZM87.4813 120.76C87.3106 120.579 87.2253 120.355 87.2253 120.088C87.2253 119.821 87.3106 119.597 87.4813 119.416C87.6626 119.235 87.8866 119.144 88.1533 119.144C88.4199 119.144 88.6439 119.235 88.8253 119.416C89.0066 119.597 89.0973 119.821 89.0973 120.088C89.0973 120.355 89.0066 120.579 88.8253 120.76C88.6439 120.931 88.4199 121.016 88.1533 121.016C87.8866 121.016 87.6626 120.931 87.4813 120.76ZM90.7349 115.736C90.7349 114.093 91.0655 112.797 91.7269 111.848C92.3989 110.888 93.2789 110.408 94.3669 110.408C95.4975 110.408 96.3935 110.888 97.0549 111.848C97.7269 112.797 98.0629 114.093 98.0629 115.736C98.0629 117.368 97.7429 118.675 97.1029 119.656C96.4629 120.637 95.5509 121.128 94.3669 121.128C93.2682 121.128 92.3882 120.637 91.7269 119.656C91.0655 118.675 90.7349 117.368 90.7349 115.736ZM92.7189 112.696C92.2602 113.411 92.0309 114.424 92.0309 115.736C92.0309 117.048 92.2549 118.077 92.7029 118.824C93.1509 119.56 93.7055 119.928 94.3669 119.928C95.1029 119.928 95.6842 119.565 96.1109 118.84C96.5482 118.115 96.7669 117.08 96.7669 115.736C96.7669 114.403 96.5375 113.384 96.0789 112.68C95.6309 111.965 95.0602 111.608 94.3669 111.608C93.7269 111.608 93.1775 111.971 92.7189 112.696ZM99.438 115.736C99.438 114.093 99.7687 112.797 100.43 111.848C101.102 110.888 101.982 110.408 103.07 110.408C104.201 110.408 105.097 110.888 105.758 111.848C106.43 112.797 106.766 114.093 106.766 115.736C106.766 117.368 106.446 118.675 105.806 119.656C105.166 120.637 104.254 121.128 103.07 121.128C101.971 121.128 101.091 120.637 100.43 119.656C99.7687 118.675 99.438 117.368 99.438 115.736ZM101.422 112.696C100.963 113.411 100.734 114.424 100.734 115.736C100.734 117.048 100.958 118.077 101.406 118.824C101.854 119.56 102.409 119.928 103.07 119.928C103.806 119.928 104.387 119.565 104.814 118.84C105.251 118.115 105.47 117.08 105.47 115.736C105.47 114.403 105.241 113.384 104.782 112.68C104.334 111.965 103.763 111.608 103.07 111.608C102.43 111.608 101.881 111.971 101.422 112.696ZM112.271 117.256V116.152H116.015V117.256H112.271ZM121.116 113.4V112.04L123.596 110.536H124.78V121H123.532V111.912L121.116 113.4ZM130.24 120.008C130.955 120.008 131.504 119.832 131.888 119.48C132.272 119.128 132.464 118.691 132.464 118.168C132.464 117.656 132.277 117.224 131.904 116.872C131.531 116.52 130.976 116.349 130.24 116.36C129.525 116.371 128.987 116.563 128.624 116.936C128.272 117.299 128.096 117.752 128.096 118.296C128.096 118.787 128.283 119.197 128.656 119.528C129.029 119.848 129.557 120.008 130.24 120.008ZM130.224 111.544C129.627 111.544 129.152 111.72 128.8 112.072C128.448 112.424 128.272 112.851 128.272 113.352C128.272 113.96 128.459 114.419 128.832 114.728C129.216 115.037 129.701 115.192 130.288 115.192C130.853 115.192 131.317 115.032 131.68 114.712C132.043 114.381 132.224 113.923 132.224 113.336C132.224 112.824 132.053 112.397 131.712 112.056C131.371 111.715 130.875 111.544 130.224 111.544ZM131.824 115.752C133.115 116.147 133.76 116.989 133.76 118.28C133.76 119.144 133.424 119.837 132.752 120.36C132.08 120.872 131.237 121.128 130.224 121.128C129.253 121.128 128.443 120.877 127.792 120.376C127.141 119.875 126.816 119.203 126.816 118.36C126.816 117.731 126.981 117.197 127.312 116.76C127.653 116.312 128.117 115.987 128.704 115.784C127.563 115.347 126.992 114.541 126.992 113.368C126.992 112.44 127.312 111.72 127.952 111.208C128.592 110.685 129.349 110.424 130.224 110.424C131.131 110.424 131.904 110.68 132.544 111.192C133.184 111.693 133.504 112.424 133.504 113.384C133.504 113.928 133.355 114.408 133.056 114.824C132.757 115.229 132.347 115.539 131.824 115.752ZM135.522 114.92C135.522 114.664 135.607 114.445 135.778 114.264C135.959 114.083 136.183 113.992 136.45 113.992C136.717 113.992 136.941 114.083 137.122 114.264C137.303 114.445 137.394 114.664 137.394 114.92C137.394 115.187 137.303 115.411 137.122 115.592C136.941 115.763 136.717 115.848 136.45 115.848C136.183 115.848 135.959 115.763 135.778 115.592C135.607 115.411 135.522 115.187 135.522 114.92ZM135.778 120.76C135.607 120.579 135.522 120.355 135.522 120.088C135.522 119.821 135.607 119.597 135.778 119.416C135.959 119.235 136.183 119.144 136.45 119.144C136.717 119.144 136.941 119.235 137.122 119.416C137.303 119.597 137.394 119.821 137.394 120.088C137.394 120.355 137.303 120.579 137.122 120.76C136.941 120.931 136.717 121.016 136.45 121.016C136.183 121.016 135.959 120.931 135.778 120.76ZM139.032 115.736C139.032 114.093 139.362 112.797 140.024 111.848C140.696 110.888 141.576 110.408 142.664 110.408C143.794 110.408 144.69 110.888 145.352 111.848C146.024 112.797 146.36 114.093 146.36 115.736C146.36 117.368 146.04 118.675 145.4 119.656C144.76 120.637 143.848 121.128 142.664 121.128C141.565 121.128 140.685 120.637 140.024 119.656C139.362 118.675 139.032 117.368 139.032 115.736ZM141.016 112.696C140.557 113.411 140.328 114.424 140.328 115.736C140.328 117.048 140.552 118.077 141 118.824C141.448 119.56 142.002 119.928 142.664 119.928C143.4 119.928 143.981 119.565 144.408 118.84C144.845 118.115 145.064 117.08 145.064 115.736C145.064 114.403 144.834 113.384 144.376 112.68C143.928 111.965 143.357 111.608 142.664 111.608C142.024 111.608 141.474 111.971 141.016 112.696ZM147.735 115.736C147.735 114.093 148.066 112.797 148.727 111.848C149.399 110.888 150.279 110.408 151.367 110.408C152.498 110.408 153.394 110.888 154.055 111.848C154.727 112.797 155.063 114.093 155.063 115.736C155.063 117.368 154.743 118.675 154.103 119.656C153.463 120.637 152.551 121.128 151.367 121.128C150.268 121.128 149.388 120.637 148.727 119.656C148.066 118.675 147.735 117.368 147.735 115.736ZM149.719 112.696C149.26 113.411 149.031 114.424 149.031 115.736C149.031 117.048 149.255 118.077 149.703 118.824C150.151 119.56 150.706 119.928 151.367 119.928C152.103 119.928 152.684 119.565 153.111 118.84C153.548 118.115 153.767 117.08 153.767 115.736C153.767 114.403 153.538 113.384 153.079 112.68C152.631 111.965 152.06 111.608 151.367 111.608C150.727 111.608 150.178 111.971 149.719 112.696Z" fill="black"/>
<path opacity="0.8" d="M69.688 141.736C69.688 140.093 70.0187 138.797 70.68 137.848C71.352 136.888 72.232 136.408 73.32 136.408C74.4507 136.408 75.3467 136.888 76.008 137.848C76.68 138.797 77.016 140.093 77.016 141.736C77.016 143.368 76.696 144.675 76.056 145.656C75.416 146.637 74.504 147.128 73.32 147.128C72.2213 147.128 71.3413 146.637 70.68 145.656C70.0187 144.675 69.688 143.368 69.688 141.736ZM71.672 138.696C71.2133 139.411 70.984 140.424 70.984 141.736C70.984 143.048 71.208 144.077 71.656 144.824C72.104 145.56 72.6587 145.928 73.32 145.928C74.056 145.928 74.6373 145.565 75.064 144.84C75.5013 144.115 75.72 143.08 75.72 141.736C75.72 140.403 75.4907 139.384 75.032 138.68C74.584 137.965 74.0133 137.608 73.32 137.608C72.68 137.608 72.1307 137.971 71.672 138.696ZM81.9431 146.008C82.6578 146.008 83.2071 145.832 83.5911 145.48C83.9751 145.128 84.1671 144.691 84.1671 144.168C84.1671 143.656 83.9805 143.224 83.6071 142.872C83.2338 142.52 82.6791 142.349 81.9431 142.36C81.2285 142.371 80.6898 142.563 80.3271 142.936C79.9751 143.299 79.7991 143.752 79.7991 144.296C79.7991 144.787 79.9858 145.197 80.3591 145.528C80.7325 145.848 81.2605 146.008 81.9431 146.008ZM81.9271 137.544C81.3298 137.544 80.8551 137.72 80.5031 138.072C80.1511 138.424 79.9751 138.851 79.9751 139.352C79.9751 139.96 80.1618 140.419 80.5351 140.728C80.9191 141.037 81.4045 141.192 81.9911 141.192C82.5565 141.192 83.0205 141.032 83.3831 140.712C83.7458 140.381 83.9271 139.923 83.9271 139.336C83.9271 138.824 83.7565 138.397 83.4151 138.056C83.0738 137.715 82.5778 137.544 81.9271 137.544ZM83.5271 141.752C84.8178 142.147 85.4631 142.989 85.4631 144.28C85.4631 145.144 85.1271 145.837 84.4551 146.36C83.7831 146.872 82.9405 147.128 81.9271 147.128C80.9565 147.128 80.1458 146.877 79.4951 146.376C78.8445 145.875 78.5191 145.203 78.5191 144.36C78.5191 143.731 78.6845 143.197 79.0151 142.76C79.3565 142.312 79.8205 141.987 80.4071 141.784C79.2658 141.347 78.6951 140.541 78.6951 139.368C78.6951 138.44 79.0151 137.72 79.6551 137.208C80.2951 136.685 81.0525 136.424 81.9271 136.424C82.8338 136.424 83.6071 136.68 84.2471 137.192C84.8871 137.693 85.2071 138.424 85.2071 139.384C85.2071 139.928 85.0578 140.408 84.7591 140.824C84.4605 141.229 84.0498 141.539 83.5271 141.752ZM87.2253 140.92C87.2253 140.664 87.3106 140.445 87.4813 140.264C87.6626 140.083 87.8866 139.992 88.1533 139.992C88.4199 139.992 88.6439 140.083 88.8253 140.264C89.0066 140.445 89.0973 140.664 89.0973 140.92C89.0973 141.187 89.0066 141.411 88.8253 141.592C88.6439 141.763 88.4199 141.848 88.1533 141.848C87.8866 141.848 87.6626 141.763 87.4813 141.592C87.3106 141.411 87.2253 141.187 87.2253 140.92ZM87.4813 146.76C87.3106 146.579 87.2253 146.355 87.2253 146.088C87.2253 145.821 87.3106 145.597 87.4813 145.416C87.6626 145.235 87.8866 145.144 88.1533 145.144C88.4199 145.144 88.6439 145.235 88.8253 145.416C89.0066 145.597 89.0973 145.821 89.0973 146.088C89.0973 146.355 89.0066 146.579 88.8253 146.76C88.6439 146.931 88.4199 147.016 88.1533 147.016C87.8866 147.016 87.6626 146.931 87.4813 146.76ZM90.7349 141.736C90.7349 140.093 91.0655 138.797 91.7269 137.848C92.3989 136.888 93.2789 136.408 94.3669 136.408C95.4975 136.408 96.3935 136.888 97.0549 137.848C97.7269 138.797 98.0629 140.093 98.0629 141.736C98.0629 143.368 97.7429 144.675 97.1029 145.656C96.4629 146.637 95.5509 147.128 94.3669 147.128C93.2682 147.128 92.3882 146.637 91.7269 145.656C91.0655 144.675 90.7349 143.368 90.7349 141.736ZM92.7189 138.696C92.2602 139.411 92.0309 140.424 92.0309 141.736C92.0309 143.048 92.2549 144.077 92.7029 144.824C93.1509 145.56 93.7055 145.928 94.3669 145.928C95.1029 145.928 95.6842 145.565 96.1109 144.84C96.5482 144.115 96.7669 143.08 96.7669 141.736C96.7669 140.403 96.5375 139.384 96.0789 138.68C95.6309 137.965 95.0602 137.608 94.3669 137.608C93.7269 137.608 93.1775 137.971 92.7189 138.696ZM99.438 141.736C99.438 140.093 99.7687 138.797 100.43 137.848C101.102 136.888 101.982 136.408 103.07 136.408C104.201 136.408 105.097 136.888 105.758 137.848C106.43 138.797 106.766 140.093 106.766 141.736C106.766 143.368 106.446 144.675 105.806 145.656C105.166 146.637 104.254 147.128 103.07 147.128C101.971 147.128 101.091 146.637 100.43 145.656C99.7687 144.675 99.438 143.368 99.438 141.736ZM101.422 138.696C100.963 139.411 100.734 140.424 100.734 141.736C100.734 143.048 100.958 144.077 101.406 144.824C101.854 145.56 102.409 145.928 103.07 145.928C103.806 145.928 104.387 145.565 104.814 144.84C105.251 144.115 105.47 143.08 105.47 141.736C105.47 140.403 105.241 139.384 104.782 138.68C104.334 137.965 103.763 137.608 103.07 137.608C102.43 137.608 101.881 137.971 101.422 138.696ZM112.271 143.256V142.152H116.015V143.256H112.271ZM121.116 139.4V138.04L123.596 136.536H124.78V147H123.532V137.912L121.116 139.4ZM130.24 146.008C130.955 146.008 131.504 145.832 131.888 145.48C132.272 145.128 132.464 144.691 132.464 144.168C132.464 143.656 132.277 143.224 131.904 142.872C131.531 142.52 130.976 142.349 130.24 142.36C129.525 142.371 128.987 142.563 128.624 142.936C128.272 143.299 128.096 143.752 128.096 144.296C128.096 144.787 128.283 145.197 128.656 145.528C129.029 145.848 129.557 146.008 130.24 146.008ZM130.224 137.544C129.627 137.544 129.152 137.72 128.8 138.072C128.448 138.424 128.272 138.851 128.272 139.352C128.272 139.96 128.459 140.419 128.832 140.728C129.216 141.037 129.701 141.192 130.288 141.192C130.853 141.192 131.317 141.032 131.68 140.712C132.043 140.381 132.224 139.923 132.224 139.336C132.224 138.824 132.053 138.397 131.712 138.056C131.371 137.715 130.875 137.544 130.224 137.544ZM131.824 141.752C133.115 142.147 133.76 142.989 133.76 144.28C133.76 145.144 133.424 145.837 132.752 146.36C132.08 146.872 131.237 147.128 130.224 147.128C129.253 147.128 128.443 146.877 127.792 146.376C127.141 145.875 126.816 145.203 126.816 144.36C126.816 143.731 126.981 143.197 127.312 142.76C127.653 142.312 128.117 141.987 128.704 141.784C127.563 141.347 126.992 140.541 126.992 139.368C126.992 138.44 127.312 137.72 127.952 137.208C128.592 136.685 129.349 136.424 130.224 136.424C131.131 136.424 131.904 136.68 132.544 137.192C133.184 137.693 133.504 138.424 133.504 139.384C133.504 139.928 133.355 140.408 133.056 140.824C132.757 141.229 132.347 141.539 131.824 141.752ZM135.522 140.92C135.522 140.664 135.607 140.445 135.778 140.264C135.959 140.083 136.183 139.992 136.45 139.992C136.717 139.992 136.941 140.083 137.122 140.264C137.303 140.445 137.394 140.664 137.394 140.92C137.394 141.187 137.303 141.411 137.122 141.592C136.941 141.763 136.717 141.848 136.45 141.848C136.183 141.848 135.959 141.763 135.778 141.592C135.607 141.411 135.522 141.187 135.522 140.92ZM135.778 146.76C135.607 146.579 135.522 146.355 135.522 146.088C135.522 145.821 135.607 145.597 135.778 145.416C135.959 145.235 136.183 145.144 136.45 145.144C136.717 145.144 136.941 145.235 137.122 145.416C137.303 145.597 137.394 145.821 137.394 146.088C137.394 146.355 137.303 146.579 137.122 146.76C136.941 146.931 136.717 147.016 136.45 147.016C136.183 147.016 135.959 146.931 135.778 146.76ZM139.032 141.736C139.032 140.093 139.362 138.797 140.024 137.848C140.696 136.888 141.576 136.408 142.664 136.408C143.794 136.408 144.69 136.888 145.352 137.848C146.024 138.797 146.36 140.093 146.36 141.736C146.36 143.368 146.04 144.675 145.4 145.656C144.76 146.637 143.848 147.128 142.664 147.128C141.565 147.128 140.685 146.637 140.024 145.656C139.362 144.675 139.032 143.368 139.032 141.736ZM141.016 138.696C140.557 139.411 140.328 140.424 140.328 141.736C140.328 143.048 140.552 144.077 141 144.824C141.448 145.56 142.002 145.928 142.664 145.928C143.4 145.928 143.981 145.565 144.408 144.84C144.845 144.115 145.064 143.08 145.064 141.736C145.064 140.403 144.834 139.384 144.376 138.68C143.928 137.965 143.357 137.608 142.664 137.608C142.024 137.608 141.474 137.971 141.016 138.696ZM147.735 141.736C147.735 140.093 148.066 138.797 148.727 137.848C149.399 136.888 150.279 136.408 151.367 136.408C152.498 136.408 153.394 136.888 154.055 137.848C154.727 138.797 155.063 140.093 155.063 141.736C155.063 143.368 154.743 144.675 154.103 145.656C153.463 146.637 152.551 147.128 151.367 147.128C150.268 147.128 149.388 146.637 148.727 145.656C148.066 144.675 147.735 143.368 147.735 141.736ZM149.719 138.696C149.26 139.411 149.031 140.424 149.031 141.736C149.031 143.048 149.255 144.077 149.703 144.824C150.151 145.56 150.706 145.928 151.367 145.928C152.103 145.928 152.684 145.565 153.111 144.84C153.548 144.115 153.767 143.08 153.767 141.736C153.767 140.403 153.538 139.384 153.079 138.68C152.631 137.965 152.06 137.608 151.367 137.608C150.727 137.608 150.178 137.971 149.719 138.696Z" fill="black"/>
<path opacity="0.8" d="M69.856 174.632L75.68 161.688H76.976L71.136 174.632H69.856ZM76.3091 174.632L82.1331 161.688H83.4291L77.5891 174.632H76.3091Z" fill="black"/>
<line x1="1" y1="182" x2="1.00001" y2="-4.37114e-08" stroke="#D22F27" stroke-width="2"/>
</svg>
